<svg width="17" height="20" viewBox="0 0 17 20" fill="none" xmlns="http://www.w3.org/2000/svg">
<g clip-path="url(#clip0_1_41)">
<path fill-rule="evenodd" clip-rule="evenodd" d="M8.09001 15.143C4.40901 15.143 1.42401 11.181 1.42401 11.181C1.42401 11.181 4.40901 7.22 8.09101 7.22C11.772 7.22 14.757 11.182 14.757 11.182C14.757 11.182 11.772 15.144 8.09101 15.144L8.09001 15.143ZM4.01201 12.39C3.55997 12.0172 3.13428 11.6136 2.73801 11.182C3.04801 10.844 3.48401 10.408 4.01201 9.974C5.15301 9.037 6.59601 8.22 8.09201 8.22C9.58801 8.22 11.03 9.037 12.172 9.974C12.7 10.408 13.135 10.844 13.446 11.182C13.135 11.52 12.7 11.956 12.171 12.39C11.03 13.327 9.58801 14.144 8.09101 14.144C6.59601 14.144 5.15301 13.327 4.01201 12.39ZM9.35501 10.768C9.58601 10.768 9.79501 10.675 9.94801 10.525C10.0969 10.9438 10.099 11.4008 9.95397 11.821C9.80894 12.2412 9.52539 12.5996 9.14986 12.8374C8.77432 13.0752 8.3291 13.1783 7.88725 13.1298C7.4454 13.0813 7.03317 12.884 6.7182 12.5703C6.40323 12.2567 6.20424 11.8453 6.15386 11.4036C6.10348 10.962 6.20472 10.5163 6.44097 10.1398C6.67721 9.76329 7.03442 9.47825 7.45399 9.33146C7.87356 9.18468 8.33056 9.18487 8.75001 9.332C8.63392 9.45075 8.55544 9.60111 8.5244 9.76426C8.49336 9.9274 8.51114 10.0961 8.57552 10.2492C8.63989 10.4022 8.74799 10.5329 8.88629 10.6249C9.02459 10.7168 9.18694 10.7659 9.35301 10.766L9.35501 10.768Z" fill="#111111"/>
</g>
<defs>
<clipPath id="clip0_1_41">
<rect width="16" height="16" fill="white" transform="translate(0.0899963 3.18)"/>
</clipPath>
</defs>
</svg>
